<?xml version="1.0" ?><!DOCTYPE svg  PUBLIC '-//W3C//DTD SVG 1.1//EN'  'http://www.w3.org/Graphics/SVG/1.1/DTD/svg11.dtd'><svg enable-background="new 0 0 24 24" height="24px" id="Layer_1" version="1.1" viewBox="0 0 24 24" width="24px" xml:space="preserve" xmlns="http://www.w3.org/2000/svg" xmlns:xlink="http://www.w3.org/1999/xlink"><g><path d="M12,0C5.4,0,0,5.4,0,12s5.4,12,12,12s12-5.4,12-12S18.6,0,12,0z M12,22C6.5,22,2,17.5,2,12S6.5,2,12,2s10,4.5,10,10   S17.5,22,12,22z"/><path d="M12,6c-3.3,0-6,2.7-6,6s2.7,6,6,6s6-2.7,6-6S15.3,6,12,6z M12,16c-2.2,0-4-1.8-4-4s1.8-4,4-4s4,1.8,4,4S14.2,16,12,16z"/><circle cx="18.5" cy="8.5" r="0.5"/><circle cx="20.5" cy="11.5" r="0.5"/><circle cx="19.1" cy="14.1" r="0.5"/><circle cx="18.4" cy="17.7" r="0.5"/><circle cx="15.5" cy="18.5" r="0.5"/><circle cx="12.5" cy="20.5" r="0.5"/><circle cx="9.9" cy="19.1" r="0.5"/><circle cx="6.3" cy="18.4" r="0.5"/><circle cx="5.5" cy="15.5" r="0.5"/><circle cx="3.5" cy="12.5" r="0.5"/><circle cx="4.9" cy="9.9" r="0.5"/><circle cx="5.6" cy="6.3" r="0.5"/><path d="M8.5,6C8.8,6,9,5.8,9,5.5C9,5.2,8.8,5,8.5,5C8.2,5,8,5.2,8,5.5C8,5.8,8.2,6,8.5,6z"/><circle cx="11.5" cy="3.5" r="0.5"/><circle cx="14.1" cy="4.9" r="0.5"/><circle cx="17.7" cy="5.6" r="0.5"/></g></svg>
